<svg viewBox="0 0 12.4849 14.847" xmlns="http://www.w3.org/2000/svg" xmlns:xlink="http://www.w3.org/1999/xlink" width="12.484863" height="14.846954" fill="none" customFrame="#000000">
	<path id="Vector" d="M0.167103 7.49566C0.295442 8.44325 0.497116 9.35766 0.768052 10.243C1.03899 11.1284 1.37919 11.9163 1.78661 12.6068C2.19403 13.2973 2.66257 13.8468 3.19222 14.2552C3.72187 14.6637 4.31263 14.8607 4.96451 14.8462C5.50842 14.8317 6.02788 14.701 6.5229 14.4522C7.01792 14.2034 7.49053 13.8758 7.93869 13.4673C8.38686 13.0588 8.80447 12.5902 9.19152 12.0573C9.57857 11.5245 9.93507 10.9729 10.261 10.3986C10.5869 9.82419 10.8803 9.24776 11.137 8.66718C11.3957 8.08661 11.6116 7.54128 11.7888 7.02913C12.1963 5.89493 12.4244 4.89343 12.4713 4.02256C12.5181 3.15169 12.4448 2.42182 12.2472 1.83503C12.0516 1.24823 11.7542 0.802426 11.361 0.497623C10.9679 0.19282 10.5319 0.0414546 10.0573 0.0414546C9.70487 0.0414546 9.34838 0.128541 8.98781 0.300641C8.62724 0.472741 8.27889 0.729854 7.93869 1.06783C7.5985 1.40581 7.28682 1.83917 7.00162 2.36377C6.71642 2.88836 6.47808 3.50419 6.28863 4.20918C6.19492 3.48967 6.03399 2.86763 5.80991 2.34303C5.58583 1.81636 5.321 1.383 5.01543 1.03673C4.70987 0.690458 4.37782 0.431271 4.01725 0.259171C3.65668 0.0870715 3.29407 -1.52588e-05 2.92739 -1.52588e-05C2.38348 -1.52588e-05 1.87421 0.182452 1.39956 0.54946C0.92491 0.916469 0.564341 1.46594 0.319887 2.19789L0.299516 2.21862C0.122287 2.96508 0.0245055 3.79448 0.00413433 4.70681C-0.0162368 5.61915 0.0387651 6.54808 0.167103 7.49566Z" fill="rgb(255,82.8961,82.8961)" fill-rule="nonzero" />
</svg>
