<svg viewBox="0 0 12.4849 14.847" xmlns="http://www.w3.org/2000/svg" xmlns:xlink="http://www.w3.org/1999/xlink" width="12.484863" height="14.846970" fill="none" customFrame="#000000">
	<path id="Vector" d="M0.167103 7.49568C0.295442 8.44326 0.497116 9.35767 0.768052 10.2431C1.03899 11.1284 1.37919 11.9164 1.78661 12.6068C2.19403 13.2973 2.66257 13.8468 3.19222 14.2553C3.72187 14.6637 4.31263 14.8607 4.96451 14.8462C5.50842 14.8317 6.02788 14.7011 6.5229 14.4522C7.01792 14.2034 7.49053 13.8758 7.93869 13.4673C8.38686 13.0589 8.80447 12.5902 9.19152 12.0574C9.57857 11.5245 9.93507 10.9729 10.261 10.3986C10.5869 9.82421 10.8803 9.24778 11.137 8.6672C11.3957 8.08662 11.6116 7.54129 11.7888 7.02914C12.1963 5.89494 12.4244 4.89344 12.4713 4.02258C12.5181 3.15171 12.4448 2.42184 12.2472 1.83504C12.0516 1.24824 11.7542 0.802442 11.361 0.497638C10.9679 0.192835 10.5319 0.0414698 10.0573 0.0414698C9.70487 0.0414698 9.34838 0.128557 8.98781 0.300656C8.62724 0.472756 8.27889 0.729869 7.93869 1.06785C7.5985 1.40583 7.28682 1.83919 7.00162 2.36378C6.71642 2.88838 6.47808 3.5042 6.28863 4.20919C6.19492 3.48969 6.03399 2.86764 5.80991 2.34305C5.58583 1.81638 5.321 1.38302 5.01543 1.03675C4.70987 0.690473 4.37782 0.431287 4.01725 0.259187C3.65668 0.0870867 3.29407 0 2.92739 0C2.38348 0 1.87421 0.182467 1.39956 0.549476C0.92491 0.916484 0.564341 1.46596 0.319887 2.1979L0.299516 2.21864C0.122287 2.96509 0.0245055 3.79449 0.00413433 4.70683C-0.0162368 5.61917 0.0387651 6.54809 0.167103 7.49568Z" fill="rgb(255,255,255)" fill-opacity="0.100000001" fill-rule="nonzero" />
	<path id="Vector" d="M0.319887 2.1979L0.299516 2.21864C0.122287 2.96509 0.0245055 3.79449 0.00413433 4.70683C-0.0162368 5.61917 0.0387651 6.54809 0.167103 7.49568C0.295442 8.44326 0.497116 9.35767 0.768052 10.2431C1.03899 11.1284 1.37919 11.9164 1.78661 12.6068C2.19403 13.2973 2.66257 13.8468 3.19222 14.2553C3.72187 14.6637 4.31263 14.8607 4.96451 14.8462C5.50842 14.8317 6.02788 14.7011 6.5229 14.4522C7.01792 14.2034 7.49053 13.8758 7.93869 13.4673C8.38686 13.0589 8.80447 12.5902 9.19152 12.0574C9.57857 11.5245 9.93507 10.9729 10.261 10.3986C10.5869 9.82421 10.8803 9.24778 11.137 8.6672C11.3957 8.08662 11.6116 7.54129 11.7888 7.02914C12.1963 5.89494 12.4244 4.89344 12.4713 4.02258C12.5181 3.15171 12.4448 2.42184 12.2472 1.83504C12.0516 1.24824 11.7542 0.802442 11.361 0.497638C10.9679 0.192835 10.5319 0.0414698 10.0573 0.0414698C9.70487 0.0414698 9.34838 0.128557 8.98781 0.300656C8.62724 0.472756 8.27889 0.729869 7.93869 1.06785C7.5985 1.40583 7.28682 1.83919 7.00162 2.36378C6.97842 2.40645 6.95553 2.44973 6.93296 2.4936C6.67797 2.98915 6.46267 3.56155 6.28863 4.20919C6.20064 3.53355 6.05336 2.94384 5.85018 2.44006C5.83699 2.40736 5.82357 2.37502 5.80991 2.34305C5.58583 1.81638 5.321 1.38302 5.01543 1.03675C4.70987 0.690473 4.37782 0.431287 4.01725 0.259187C3.65668 0.0870867 3.29407 0 2.92739 0C2.38348 0 1.87421 0.182467 1.39956 0.549476C0.92491 0.916484 0.564341 1.46596 0.319887 2.1979ZM1.23519 2.61407C1.09834 3.24709 1.02123 3.95212 1.00389 4.72915C0.984793 5.58418 1.03618 6.46162 1.15806 7.36147C1.27057 8.19223 1.4442 9.00495 1.67893 9.79961C1.6938 9.84996 1.70892 9.90024 1.72428 9.95044C1.97135 10.7578 2.27921 11.4739 2.64785 12.0986C2.98998 12.6785 3.37501 13.1334 3.80292 13.4634C4.00502 13.6193 4.21982 13.7276 4.44733 13.7885C4.60612 13.8309 4.77109 13.8503 4.94225 13.8465C5.08829 13.8426 5.23207 13.8269 5.37356 13.7995C5.61352 13.753 5.84693 13.6728 6.0738 13.5588C6.4901 13.3495 6.88719 13.0727 7.26507 12.7283C7.66589 12.3629 8.03834 11.9434 8.38242 11.4697C8.75109 10.9621 9.08738 10.4405 9.39129 9.90502C9.70831 9.34638 9.98533 8.79899 10.2224 8.26285C10.4652 7.71794 10.6723 7.19769 10.8438 6.70212C11.2216 5.65019 11.4313 4.7391 11.4727 3.96885C11.5129 3.22145 11.4552 2.61655 11.2995 2.15418C11.168 1.75959 10.9843 1.47085 10.7483 1.28795C10.6048 1.17666 10.4528 1.10305 10.2924 1.06714C10.2159 1.05003 10.1376 1.04147 10.0573 1.04147C9.85726 1.04147 9.64435 1.09536 9.41856 1.20313C9.16557 1.32388 8.90721 1.51526 8.64348 1.77727C8.37563 2.04337 8.12119 2.39809 7.88018 2.84141C7.63167 3.29853 7.42306 3.84097 7.25437 4.46871L5.29701 4.33834C5.21577 3.71461 5.0802 3.18046 4.89029 2.73586C4.70976 2.31157 4.50154 1.96575 4.26563 1.69841C4.04955 1.45354 3.82317 1.27462 3.5865 1.16166C3.3607 1.05389 3.141 1 2.92739 1C2.88206 1 2.83697 1.00232 2.79212 1.00696C2.5232 1.03478 2.26291 1.14598 2.01125 1.34057C1.69602 1.58431 1.4484 1.97568 1.26839 2.51468L1.23519 2.61407Z" fill="rgb(255,82.8961,82.8961)" fill-rule="evenodd" />
</svg>
