<svg viewBox="0 0 461.738 162" xmlns="http://www.w3.org/2000/svg" xmlns:xlink="http://www.w3.org/1999/xlink" width="461.737793" height="162.000000" fill="none" customFrame="#000000">
	<mask id="mask_1" width="170.419312" height="45.000046" x="146.185547" y="117.000000" maskUnits="userSpaceOnUse">
		<g filter="url(#pixso_custom_mask_type_alpha)">
			<g id="Group 2">
				<path id="Vector" d="M154.204 150.69C154.605 152.126 155.15 153.155 155.85 153.772C156.55 154.388 157.477 154.699 158.632 154.699C159.668 154.699 160.529 154.4 161.205 153.802C161.882 153.203 162.223 152.425 162.223 151.468C162.223 150.792 162.025 150.211 161.624 149.733C161.223 149.254 160.739 148.865 160.158 148.566C159.578 148.267 158.973 148.009 158.333 147.788C157.693 147.566 157.112 147.381 156.598 147.219C154.922 146.663 153.504 146.064 152.349 145.424C151.194 144.784 150.243 144.066 149.507 143.27C148.771 142.474 148.232 141.594 147.891 140.637C147.55 139.679 147.382 138.602 147.382 137.406C147.382 135.969 147.664 134.641 148.22 133.426C148.777 132.211 149.555 131.14 150.554 130.225C151.553 129.309 152.72 128.591 154.055 128.07C155.389 127.55 156.837 127.292 158.393 127.292C159.949 127.292 161.373 127.532 162.672 128.011C163.97 128.489 165.095 129.165 166.053 130.045C167.01 130.925 167.77 131.972 168.326 133.187C168.883 134.402 169.206 135.748 169.284 137.226L161.505 137.226C161.307 136.346 160.948 135.688 160.428 135.251C159.907 134.814 159.231 134.593 158.393 134.593C157.555 134.593 156.789 134.862 156.209 135.401C155.628 135.939 155.341 136.61 155.341 137.406C155.341 138.004 155.551 138.501 155.969 138.902C156.388 139.302 156.897 139.632 157.495 139.889C158.094 140.146 158.71 140.368 159.35 140.547C159.991 140.727 160.529 140.876 160.966 140.996C164.359 142.073 166.741 143.342 168.117 144.796C169.493 146.25 170.182 148.219 170.182 150.69C170.182 152.288 169.87 153.772 169.254 155.148C168.632 156.525 167.8 157.721 166.741 158.739C165.682 159.756 164.437 160.552 163.001 161.132C161.565 161.713 160.009 162 158.333 162C154.821 162 152.008 161.013 149.896 159.038C147.777 157.063 146.545 154.28 146.186 150.69L154.204 150.69Z" fill="rgb(0,0,0)" fill-rule="nonzero" />
				<path id="Vector" d="M176.16 135.311L172.27 135.311L172.27 128.07L176.16 128.07L176.16 117L184.118 117L184.118 128.07L188.906 128.07L188.906 135.311L184.118 135.311L184.118 161.222L176.16 161.222L176.16 135.311Z" fill="rgb(0,0,0)" fill-rule="nonzero" />
				<path id="Vector" d="M214.876 158.05C213.356 159.528 211.902 160.552 210.508 161.132C209.114 161.713 207.396 162 205.362 162C201.173 162 198.019 160.653 195.907 157.961C193.795 155.268 192.735 151.229 192.735 145.843L192.735 128.07L200.694 128.07L200.694 144.287C200.694 147.997 201.185 150.66 202.16 152.276C203.136 153.891 204.745 154.699 206.977 154.699C209.61 154.699 211.483 153.862 212.602 152.186C213.721 150.51 214.278 147.68 214.278 143.689L214.278 128.07L222.237 128.07L222.237 161.222L214.876 161.222L214.876 158.05Z" fill="rgb(0,0,0)" fill-rule="nonzero" />
				<path id="Vector" d="M228.43 137.645C229.286 135.491 230.465 133.618 231.961 132.02C233.457 130.422 235.21 129.166 237.227 128.25C239.243 127.334 241.404 126.874 243.719 126.874C245.796 126.874 247.741 127.233 249.554 127.951C251.367 128.669 252.875 129.686 254.072 131.003L254.072 117L262.03 117L262.03 161.222L254.73 161.222L254.73 156.914C253.096 158.709 251.427 160.007 249.733 160.803C248.04 161.599 246.053 162 243.779 162C241.505 162 239.231 161.551 237.197 160.654C235.162 159.756 233.409 158.529 231.931 156.973C230.453 155.418 229.286 153.58 228.43 151.468C227.568 149.356 227.144 147.058 227.144 144.586C227.144 142.115 227.568 139.799 228.43 137.645ZM235.94 148.386C236.461 149.643 237.155 150.738 238.035 151.677C238.914 152.617 239.949 153.353 241.146 153.892C242.343 154.43 243.642 154.699 245.036 154.699C246.43 154.699 247.651 154.442 248.806 153.922C249.961 153.401 250.978 152.683 251.858 151.767C252.737 150.852 253.425 149.775 253.922 148.536C254.419 147.297 254.67 145.963 254.67 144.527C254.67 143.013 254.419 141.624 253.922 140.368C253.425 139.111 252.737 138.022 251.858 137.106C250.978 136.191 249.931 135.473 248.716 134.952C247.501 134.432 246.173 134.174 244.737 134.174C243.378 134.174 242.122 134.432 240.967 134.952C239.812 135.473 238.8 136.191 237.945 137.106C237.089 138.022 236.407 139.099 235.91 140.338C235.413 141.576 235.162 142.911 235.162 144.347C235.162 145.783 235.419 147.13 235.94 148.386Z" fill="rgb(0,0,0)" fill-rule="nonzero" />
				<path id="Vector" d="M268.493 117L276.452 117L276.452 124.48L268.493 124.48L268.493 117ZM268.493 128.07L276.452 128.07L276.452 161.222L268.493 161.222L268.493 128.07Z" fill="rgb(0,0,0)" fill-rule="nonzero" />
				<path id="Vector" d="M282.735 137.884C283.651 135.772 284.919 133.923 286.535 132.349C288.151 130.775 290.036 129.536 292.19 128.639C294.344 127.741 296.654 127.292 299.131 127.292C301.609 127.292 303.787 127.753 305.923 128.669C308.06 129.584 309.915 130.835 311.489 132.409C313.062 133.983 314.307 135.832 315.229 137.944C316.144 140.056 316.605 142.312 316.605 144.706C316.605 147.1 316.144 149.344 315.229 151.438C314.307 153.532 313.056 155.358 311.459 156.913C309.861 158.469 308 159.708 305.864 160.624C303.727 161.539 301.447 162 299.012 162C296.576 162 294.296 161.551 292.16 160.653C290.024 159.756 288.151 158.517 286.535 156.943C284.919 155.37 283.651 153.532 282.735 151.438C281.82 149.344 281.359 147.1 281.359 144.706C281.359 142.312 281.82 139.997 282.735 137.884ZM302.692 153.921C303.871 153.401 304.894 152.683 305.774 151.767C306.653 150.852 307.342 149.792 307.838 148.596C308.335 147.399 308.586 146.1 308.586 144.706C308.586 143.312 308.335 141.941 307.838 140.727C307.342 139.512 306.653 138.441 305.774 137.525C304.894 136.61 303.859 135.892 302.662 135.371C301.465 134.85 300.191 134.593 298.832 134.593C297.558 134.593 296.337 134.862 295.182 135.401C294.027 135.939 293.016 136.669 292.16 137.585C291.304 138.501 290.622 139.572 290.125 140.786C289.629 142.001 289.378 143.288 289.378 144.646C289.378 146.005 289.629 147.351 290.125 148.566C290.622 149.78 291.31 150.852 292.19 151.767C293.064 152.683 294.087 153.401 295.242 153.921C296.397 154.442 297.635 154.699 298.952 154.699C300.268 154.699 301.513 154.442 302.692 153.921Z" fill="rgb(0,0,0)" fill-rule="nonzero" />
			</g>
		</g>
	</mask>
	<defs>
		<filter id="pixso_custom_mask_type_alpha">
			<feColorMatrix type="matrix" values="0 0 0 0 1 0 0 0 0 1 0 0 0 0 1 0 0 0 1 0 " />
		</filter>
	</defs>
	<mask id="mask_0" width="461.737854" height="94.000046" x="0.000000" y="0.000000" maskUnits="userSpaceOnUse">
		<g filter="url(#pixso_custom_mask_type_alpha)">
			<g id="Group 7">
				<path id="Vector" d="M0 23.125L15.375 23.125L15.375 29.75C18.4625 26.75 21.475 24.625 24.4375 23.375C27.4 22.125 30.875 21.5 34.875 21.5C44.125 21.5 50.875 24.1875 55.125 29.5625C59.375 34.9375 61.5 43.5 61.5 55.25L61.5 92.3751L44.875 92.3751L44.875 58.5C44.875 50.6625 43.85 45.0875 41.8125 41.75C39.775 38.4125 36.375 36.75 31.625 36.75C26.375 36.75 22.5625 38.5625 20.1875 42.1875C17.8125 45.8125 16.625 51.6625 16.625 59.75L16.625 92.3751L0 92.3751L0 23.125Z" fill="rgb(0,0,0)" fill-rule="nonzero" />
				<path id="Vector" d="M74.75 23.125L90 23.125L90 29.875C91.1625 28.2125 92.25 26.8375 93.25 25.75C94.25 24.6625 95.375 23.8125 96.625 23.1875C97.875 22.5625 99.25 22.125 100.75 21.875C102.25 21.625 104.088 21.5 106.25 21.5L106.25 37.5C101.25 37.5 97.525 38.85 95.0625 41.5625C92.6 44.275 91.375 48.375 91.375 53.875L91.375 92.3751L74.75 92.3751L74.75 23.125Z" fill="rgb(0,0,0)" fill-rule="nonzero" />
				<path id="Vector" d="M115.375 43.3125C117.125 38.85 119.563 35.025 122.688 31.8125C125.813 28.6 129.538 26.0875 133.875 24.25C138.213 22.4125 142.913 21.5 148 21.5C153.088 21.5 157.4 22.35 160.938 24.0625C164.475 25.775 167.713 28.5375 170.625 32.375L170.625 23.125L185.875 23.125L185.875 92.3751L170.625 92.3751L170.625 83.375C167.288 87.2125 163.85 89.9376 160.313 91.5626C156.775 93.1876 152.538 94 147.625 94C142.713 94 137.875 93.1 133.625 91.3125C129.375 89.525 125.713 87.025 122.625 83.8125C119.538 80.6 117.125 76.8125 115.375 72.4375C113.625 68.0625 112.75 63.25 112.75 58C112.75 52.75 113.625 47.775 115.375 43.3125ZM131 66.625C132 69.125 133.4 71.275 135.188 73.0625C136.975 74.85 139.15 76.25 141.688 77.25C144.225 78.25 147 78.75 150 78.75C153 78.75 155.725 78.25 158.188 77.25C160.65 76.25 162.775 74.8375 164.563 73C166.35 71.1625 167.725 68.975 168.688 66.4375C169.65 63.9 170.125 61.0875 170.125 58C170.125 54.9125 169.625 52.0625 168.625 49.4375C167.625 46.8125 166.213 44.5625 164.375 42.6875C162.538 40.8125 160.35 39.35 157.813 38.3125C155.263 37.275 152.5 36.75 149.5 36.75C146.5 36.75 143.913 37.2875 141.5 38.375C139.088 39.4625 136.975 40.9625 135.188 42.875C133.4 44.7875 132 47.0625 131 49.6875C130 52.3125 129.5 55.2125 129.5 58.375C129.5 61.375 130 64.125 131 66.625Z" fill="rgb(0,0,0)" fill-rule="nonzero" />
				<path id="Vector" d="M193 23.125L211.5 23.125L227.5 69L243.25 23.125L262 23.125L234.125 92.3751L220.875 92.3751L193 23.125Z" fill="rgb(0,0,0)" fill-rule="nonzero" />
				<path id="Vector" d="M269.125 0L285.75 0L285.75 15.625L269.125 15.625L269.125 0ZM269.125 23.125L285.75 23.125L285.75 92.3751L269.125 92.3751L269.125 23.125Z" fill="rgb(0,0,0)" fill-rule="nonzero" />
				<path id="Vector" d="M302.25 38.25L294.125 38.25L294.125 23.125L302.25 23.125L302.25 0L318.875 0L318.875 23.125L328.875 23.125L328.875 38.25L318.875 38.25L318.875 92.3751L302.25 92.3751L302.25 38.25Z" fill="rgb(0,0,0)" fill-rule="nonzero" />
				<path id="Vector" d="M349 70.375C349.837 73.375 350.975 75.525 352.438 76.8125C353.9 78.1 355.837 78.75 358.25 78.75C360.413 78.75 362.212 78.125 363.625 76.875C365.037 75.625 365.75 74 365.75 72C365.75 70.5875 365.338 69.375 364.5 68.375C363.663 67.375 362.65 66.5625 361.438 65.9375C360.225 65.3125 358.962 64.775 357.625 64.3125C356.288 63.85 355.088 63.4625 354 63.125C350.5 61.9625 347.538 60.7125 345.125 59.375C342.712 58.0375 340.725 56.5375 339.188 54.875C337.65 53.2125 336.525 51.375 335.812 49.375C335.1 47.375 334.75 45.125 334.75 42.625C334.75 39.625 335.337 36.85 336.5 34.3125C337.663 31.775 339.287 29.5375 341.375 27.625C343.462 25.7125 345.9 24.2125 348.688 23.125C351.475 22.0375 354.5 21.5 357.75 21.5C361 21.5 363.975 22 366.688 23C369.4 24 371.75 25.4125 373.75 27.25C375.75 29.0875 377.338 31.275 378.5 33.8125C379.663 36.35 380.337 39.1625 380.5 42.25L364.25 42.25C363.837 40.4125 363.087 39.0375 362 38.125C360.913 37.2125 359.5 36.75 357.75 36.75C356 36.75 354.4 37.3125 353.188 38.4375C351.975 39.5625 351.375 40.9625 351.375 42.625C351.375 43.875 351.812 44.9125 352.687 45.75C353.562 46.5875 354.625 47.275 355.875 47.8125C357.125 48.35 358.413 48.8125 359.75 49.1875C361.088 49.5625 362.212 49.875 363.125 50.125C370.212 52.375 375.188 55.025 378.063 58.0625C380.938 61.1 382.375 65.2125 382.375 70.375C382.375 73.7125 381.725 76.8125 380.438 79.6875C379.15 82.5625 377.4 85.0625 375.188 87.1875C372.975 89.3125 370.375 90.9751 367.375 92.1876C364.375 93.4001 361.125 94 357.625 94C350.288 94 344.412 91.9375 340 87.8125C335.575 83.6875 333 77.875 332.25 70.375L349 70.375Z" fill="rgb(0,0,0)" fill-rule="nonzero" />
				<path id="Vector" d="M391.238 43.3125C392.988 38.85 395.425 35.025 398.55 31.8125C401.675 28.6 405.4 26.0875 409.738 24.25C414.063 22.4125 418.775 21.5 423.863 21.5C428.95 21.5 433.263 22.35 436.8 24.0625C440.338 25.775 443.575 28.5375 446.488 32.375L446.488 23.125L461.738 23.125L461.738 92.3751L446.488 92.3751L446.488 83.375C443.15 87.2125 439.713 89.9376 436.175 91.5626C432.638 93.1876 428.4 94 423.488 94C418.575 94 413.738 93.1 409.488 91.3125C405.238 89.525 401.575 87.025 398.488 83.8125C395.4 80.6 392.988 76.8125 391.238 72.4375C389.488 68.0625 388.613 63.25 388.613 58C388.613 52.75 389.488 47.775 391.238 43.3125ZM406.863 66.625C407.863 69.125 409.263 71.275 411.05 73.0625C412.838 74.85 415.013 76.25 417.55 77.25C420.088 78.25 422.863 78.75 425.863 78.75C428.863 78.75 431.588 78.25 434.05 77.25C436.513 76.25 438.638 74.8375 440.425 73C442.213 71.1625 443.588 68.975 444.55 66.4375C445.513 63.9 445.988 61.0875 445.988 58C445.988 54.9125 445.488 52.0625 444.488 49.4375C443.488 46.8125 442.075 44.5625 440.238 42.6875C438.4 40.8125 436.213 39.35 433.675 38.3125C431.138 37.275 428.363 36.75 425.363 36.75C422.363 36.75 419.775 37.2875 417.363 38.375C414.95 39.4625 412.838 40.9625 411.05 42.875C409.263 44.7875 407.863 47.0625 406.863 49.6875C405.863 52.3125 405.363 55.2125 405.363 58.375C405.363 61.375 405.863 64.125 406.863 66.625Z" fill="rgb(0,0,0)" fill-rule="nonzero" />
			</g>
		</g>
	</mask>
	<g id="Logo">
		<g id="Mask group" mask="url(#mask_0)">
			<rect id="Rectangle 6" width="528.000000" height="143.000000" x="-38.000000" y="-16.000000" fill="rgb(255,255,255)" />
		</g>
		<g id="Mask group" mask="url(#mask_1)">
			<rect id="Rectangle 7" width="229.000000" height="74.000000" x="113.000000" y="105.000000" fill="rgb(255,255,255)" />
		</g>
	</g>
</svg>
