<svg viewBox="0 0 48 41" xmlns="http://www.w3.org/2000/svg" xmlns:xlink="http://www.w3.org/1999/xlink" width="48.000000" height="41.000000" fill="none" customFrame="#000000">
	<path id="Vector" d="M0.54876 24.2334C0.970217 27.297 1.63251 30.2532 2.52225 33.1157C3.41199 35.9781 4.52919 38.5254 5.86715 40.7577C7.20511 42.99 8.74376 44.7665 10.4831 46.0871C12.2225 47.4077 14.1625 48.0445 16.3032 47.9976C18.0894 47.9507 19.7953 47.5283 21.4209 46.7239C23.0465 45.9195 24.5986 44.8603 26.0703 43.5397C27.5421 42.2191 28.9135 40.7041 30.1845 38.9813C31.4556 37.2585 32.6263 35.4753 33.6967 33.6184C34.7671 31.7615 35.7304 29.8979 36.5733 28.0209C37.4229 26.1439 38.132 24.3809 38.714 22.7251C40.052 19.0583 40.8012 15.8204 40.9551 13.0049C41.109 10.1894 40.8681 7.82977 40.2192 5.93266C39.577 4.03555 38.6003 2.59428 37.3092 1.60886C36.018 0.623432 34.5864 0.134071 33.0277 0.134071C31.8704 0.134071 30.6997 0.415621 29.5156 0.972018C28.3315 1.52841 27.1875 2.35966 26.0703 3.45234C24.9531 4.54502 23.9296 5.94607 22.993 7.64207C22.0564 9.33808 21.2737 11.329 20.6516 13.6083C20.3439 11.2821 19.8154 9.27104 19.0795 7.57504C18.3436 5.87233 17.4739 4.47128 16.4705 3.35179C15.467 2.23229 14.3766 1.39434 13.1925 0.837947C12.0084 0.28155 10.8176 0 9.61343 0C7.82726 0 6.15481 0.589914 4.59609 1.77645C3.03736 2.96298 1.85327 4.73943 1.05049 7.10579L0.983598 7.17282C0.401586 9.58611 0.0804749 12.2675 0.013577 15.2171C-0.053321 18.1667 0.127303 21.1699 0.54876 24.2334Z" fill="rgb(255,255,255)" fill-opacity="0.100000001" fill-rule="nonzero" transform="matrix(1.19249e-08,-1,1,1.19249e-08,0,41)" />
	<path id="Vector" d="M1.05049 7.10579L0.983598 7.17282C0.401586 9.58611 0.0804749 12.2675 0.013577 15.2171C-0.053321 18.1667 0.127303 21.1699 0.54876 24.2334C0.970217 27.297 1.63251 30.2532 2.52225 33.1157C3.41199 35.9781 4.52919 38.5254 5.86715 40.7577C7.20511 42.99 8.74376 44.7665 10.4831 46.0871C12.2225 47.4077 14.1625 48.0445 16.3032 47.9976C18.0894 47.9507 19.7953 47.5283 21.4209 46.7239C23.0465 45.9195 24.5986 44.8603 26.0703 43.5397C27.5421 42.2191 28.9135 40.7041 30.1845 38.9813C31.4556 37.2585 32.6263 35.4753 33.6967 33.6184C34.7671 31.7615 35.7304 29.8979 36.5733 28.0209C37.4229 26.1439 38.132 24.3809 38.714 22.7251C40.052 19.0583 40.8012 15.8204 40.9551 13.0049C41.109 10.1894 40.8681 7.82977 40.2192 5.93266C39.577 4.03555 38.6003 2.59428 37.3092 1.60886C36.018 0.623432 34.5864 0.134071 33.0277 0.134071C31.8704 0.134071 30.6997 0.415621 29.5156 0.972018C28.3315 1.52841 27.1875 2.35966 26.0703 3.45234C24.9531 4.54502 23.9296 5.94607 22.993 7.64207C22.3615 8.78574 21.7999 10.0635 21.3103 11.4734C21.0739 12.1543 20.8542 12.866 20.6516 13.6083C20.5501 12.8408 20.4245 12.1076 20.2754 11.4087C19.9726 9.98938 19.5726 8.71148 19.0795 7.57504C18.3436 5.87233 17.4739 4.47128 16.4705 3.35179C15.467 2.23229 14.3766 1.39434 13.1925 0.837947C12.0084 0.28155 10.8176 0 9.61343 0C7.82726 0 6.15481 0.589914 4.59609 1.77645C3.03736 2.96298 1.85327 4.73943 1.05049 7.10579ZM1.89172 7.6785C1.3691 9.94255 1.0763 12.463 1.01332 15.2398C0.947988 18.1203 1.12336 21.0728 1.53943 24.0971C1.8959 26.6883 2.43183 29.2278 3.14721 31.7158C3.25326 32.0846 3.36325 32.4523 3.47718 32.8188C4.3408 35.5972 5.42337 38.0722 6.72488 40.2436C7.99667 42.3655 9.45098 44.0479 11.0878 45.2906C11.9439 45.9406 12.8537 46.4052 13.8172 46.6845C14.6029 46.9122 15.4242 47.0166 16.2813 46.9978C16.9956 46.9791 17.6954 46.8946 18.3809 46.7444C19.2706 46.5495 20.1361 46.2439 20.9774 45.8276C22.5318 45.0584 24.0069 44.0477 25.4025 42.7954C26.8332 41.5116 28.159 40.0423 29.3799 38.3876C30.6404 36.679 31.7905 34.9229 32.8303 33.119C33.9086 31.2484 34.8522 29.4124 35.6611 27.6113C36.4831 25.7953 37.1862 24.056 37.7706 22.3935C39.08 18.8048 39.8087 15.6571 39.9566 12.9504C40.1041 10.2512 39.8763 8.01981 39.2731 6.25631C38.6977 4.55682 37.8409 3.27265 36.7025 2.40378C36.0407 1.89872 35.3377 1.54434 34.5935 1.34063C34.0904 1.20292 33.5685 1.13407 33.0277 1.13407C32.024 1.13407 30.995 1.38174 29.9408 1.87708C28.8762 2.37737 27.8191 3.14075 26.7695 4.16725C25.7326 5.18141 24.7656 6.50082 23.8684 8.12549C22.9672 9.75749 22.2165 11.6729 21.6163 13.8716L19.6602 13.7394C19.3667 11.5205 18.8673 9.59835 18.1621 7.97307C17.4745 6.38209 16.6624 5.06415 15.7258 4.01925C14.8111 2.99876 13.8249 2.24001 12.7672 1.74301C11.713 1.24767 10.6618 1 9.61343 1C9.20898 1 8.81078 1.03504 8.41885 1.10511C7.29499 1.30603 6.22264 1.79505 5.20179 2.57214C3.80214 3.63758 2.73404 5.25588 1.99748 7.42705L1.92272 7.64743L1.89172 7.6785Z" fill="rgb(255,82.8961,82.8961)" fill-rule="evenodd" transform="matrix(1.19249e-08,-1,1,1.19249e-08,0,41)" />
</svg>
